<svg style="overflow: hidden; position: relative; top: 0.300003px;" xmlns="http://www.w3.org/2000/svg" width="673" version="1.1" height="135"><path stroke-width="2" d="M519,74H529" stroke="#eeeeec" fill="none" style=""></path><path stroke-width="2" d="M275,74H285" stroke="#eeeeec" fill="none" style=""></path><path stroke-width="2" d="M166,74H176" stroke="#eeeeec" fill="none" style=""></path><path stroke-width="2" d="M60,74H70" stroke="#eeeeec" fill="none" style=""></path><path stroke-width="2" d="M653,74H643" stroke="#eeeeec" fill="none" style=""></path><path stroke-width="2" d="M529,74H539" stroke="#eeeeec" fill="none" style=""></path><path stroke-width="2" d="M633,74Q643,74,643,84V86Q643,96,633,96H549Q539,96,539,86V84Q539,74,549,74" stroke="#eeeeec" fill="none" style=""></path><path stroke-width="2" d="M643,74H633" stroke="#eeeeec" fill="none" style=""></path><path stroke-width="2" d="M539,74H549" stroke="#eeeeec" fill="none" style=""></path><path stroke-width="2" d="M285,74Q295,74,295,64V39Q295,29,305,29H499Q509,29,509,39V64Q509,74,519,74" stroke="#eeeeec" fill="none" style=""></path><path stroke-width="2" d="M519,74H499" stroke="#eeeeec" fill="none" style=""></path><path stroke-width="2" d="M285,74H305" stroke="#eeeeec" fill="none" style=""></path><path stroke-width="2" d="M499,74H489" stroke="#eeeeec" fill="none" style=""></path><path stroke-width="2" d="M305,74H315" stroke="#eeeeec" fill="none" style=""></path><path stroke-width="2" d="M380,74H390" stroke="#eeeeec" fill="none" style=""></path><path stroke-width="2" d="M337,74H347" stroke="#eeeeec" fill="none" style=""></path><path stroke-width="2" d="M479,74Q489,74,489,84V86Q489,96,479,96H400Q390,96,390,86V84Q390,74,400,74" stroke="#eeeeec" fill="none" style=""></path><path stroke-width="2" d="M489,74H479" stroke="#eeeeec" fill="none" style=""></path><path stroke-width="2" d="M390,74H400" stroke="#eeeeec" fill="none" style=""></path><path stroke-width="2" d="M265,74Q275,74,275,84V86Q275,96,265,96H186Q176,96,176,86V84Q176,74,186,74" stroke="#eeeeec" fill="none" style=""></path><path stroke-width="2" d="M275,74H265" stroke="#eeeeec" fill="none" style=""></path><path stroke-width="2" d="M176,74H186" stroke="#eeeeec" fill="none" style=""></path><path stroke-width="2" d="M166,74Q156,74,156,84V81Q156,91,146,91H146" stroke="#eeeeec" fill="none" style=""></path><path stroke-width="2" d="M70,74Q80,74,80,84V81Q80,91,90,91H90" stroke="#eeeeec" fill="none" style=""></path><path stroke-width="2" d="M166,74Q156,74,156,64V67Q156,57,146,57H130.5" stroke="#eeeeec" fill="none" style=""></path><path stroke-width="2" d="M70,74Q80,74,80,64V67Q80,57,90,57H105.5" stroke="#eeeeec" fill="none" style=""></path><desc>Created with Raphaël 2.1.0</desc><defs></defs><rect style="" stroke="#d3d7cf" fill="#d3d7cf" ry="3" rx="3" r="0" height="102" width="40" y="23" x="20"></rect><text font-size="10px" fill="#eeeeec" stroke="none" font="10px &quot;Arial&quot;" text-anchor="middle" y="16.5" x="37.5" style="text-anchor: middle; font: 10px &quot;Arial&quot;;"><tspan dy="3.5">One of:</tspan></text><rect style="" stroke="#204a87" fill="#204a87" ry="3" rx="3" r="0" height="24" width="30" y="96" x="25"></rect><text font-size="12px" fill="#eeeeec" stroke="none" font="10px &quot;Arial&quot;" text-anchor="middle" y="108" x="40" style="text-anchor: middle; font: 12px &quot;Arial&quot;;"><tspan dy="4">@</tspan></text><rect style="" stroke="#204a87" fill="#204a87" ry="3" rx="3" r="0" height="24" width="21" y="62" x="29.5"></rect><text font-size="12px" fill="#eeeeec" stroke="none" font="10px &quot;Arial&quot;" text-anchor="middle" y="74" x="40" style="text-anchor: middle; font: 12px &quot;Arial&quot;;"><tspan dy="4">!</tspan></text><rect style="" stroke="#204a87" fill="#204a87" ry="3" rx="3" r="0" height="24" width="21" y="28" x="29.5"></rect><text font-size="12px" fill="#eeeeec" stroke="none" font="10px &quot;Arial&quot;" text-anchor="middle" y="40" x="40" style="text-anchor: middle; font: 12px &quot;Arial&quot;;"><tspan dy="4">.</tspan></text><rect stroke-width="2" stroke-dasharray="6,2" style="" stroke="#a0a0a0" fill="none" ry="3" rx="3" r="0" height="54" width="124" y="52" x="529"></rect><text font-size="10px" fill="#eeeeec" stroke="none" font="10px &quot;Arial&quot;" text-anchor="middle" y="45.5" x="551" style="text-anchor: middle; font: 10px &quot;Arial&quot;;"><tspan dy="3.5">Search Query</tspan></text><rect style="" stroke="#6b6659" fill="#6b6659" ry="0" rx="0" r="0" height="24" width="84" y="62" x="549"></rect><text font-size="12px" fill="#ffffff" stroke="none" font="10px &quot;Arial&quot;" text-anchor="middle" y="74" x="591" style="text-anchor: middle; font: 12px &quot;Arial&quot;;"><tspan dy="4">any character</tspan></text><rect style="" stroke="#4e9a06" fill="#4e9a06" ry="3" rx="3" r="0" height="24" width="79" y="62" x="186"></rect><text font-size="12px" fill="#eeeeec" stroke="none" font="10px &quot;Arial&quot;" text-anchor="middle" y="74" x="225.5" style="text-anchor: middle; font: 12px &quot;Arial&quot;;"><tspan dy="4">whitespace</tspan></text><rect stroke-width="2" stroke-dasharray="6,2" style="" stroke="#a0a0a0" fill="none" ry="3" rx="3" r="0" height="54" width="194" y="52" x="305"></rect><text font-size="10px" fill="#eeeeec" stroke="none" font="10px &quot;Arial&quot;" text-anchor="middle" y="45.5" x="327" style="text-anchor: middle; font: 10px &quot;Arial&quot;;"><tspan dy="3.5"># of Results</tspan></text><rect style="" stroke="#4e9a06" fill="#4e9a06" ry="3" rx="3" r="0" height="24" width="79" y="62" x="400"></rect><text font-size="12px" fill="#eeeeec" stroke="none" font="10px &quot;Arial&quot;" text-anchor="middle" y="74" x="439.5" style="text-anchor: middle; font: 12px &quot;Arial&quot;;"><tspan dy="4">whitespace</tspan></text><rect style="" stroke="#4e9a06" fill="#4e9a06" ry="3" rx="3" r="0" height="24" width="33" y="62" x="347"></rect><text font-size="12px" fill="#eeeeec" stroke="none" font="10px &quot;Arial&quot;" text-anchor="middle" y="74" x="363.5" style="text-anchor: middle; font: 12px &quot;Arial&quot;;"><tspan dy="4">digit</tspan></text><rect style="" stroke="#204a87" fill="#204a87" ry="3" rx="3" r="0" height="24" width="22" y="62" x="315"></rect><text font-size="12px" fill="#eeeeec" stroke="none" font="10px &quot;Arial&quot;" text-anchor="middle" y="74" x="326" style="text-anchor: middle; font: 12px &quot;Arial&quot;;"><tspan dy="4">-</tspan></text><rect style="" stroke="#204a87" fill="#204a87" ry="3" rx="3" r="0" height="24" width="25" y="45" x="105.5"></rect><text font-size="12px" fill="#eeeeec" stroke="none" font="10px &quot;Arial&quot;" text-anchor="middle" y="57" x="118" style="text-anchor: middle; font: 12px &quot;Arial&quot;;"><tspan dy="4">g</tspan></text><rect style="" stroke="#204a87" fill="#204a87" ry="3" rx="3" r="0" height="24" width="56" y="79" x="90"></rect><text font-size="12px" fill="#eeeeec" stroke="none" font="10px &quot;Arial&quot;" text-anchor="middle" y="91" x="118" style="text-anchor: middle; font: 12px &quot;Arial&quot;;"><tspan dy="4">google</tspan></text><path stroke-width="2" d="M10,74H20" stroke="#eeeeec" fill="none" style=""></path><circle stroke-width="2" style="" stroke="#000" fill="#6b6659" r="5" cy="74" cx="10"></circle><path stroke-width="2" d="M663,74H653" stroke="#eeeeec" fill="none" style=""></path><circle stroke-width="2" style="" stroke="#000" fill="#6b6659" r="5" cy="74" cx="663"></circle></svg>
