<svg style="overflow: hidden; position: relative; top: 0.300003px;" xmlns="http://www.w3.org/2000/svg" width="446" version="1.1" height="135"><path stroke-width="2" d="M229,74H239" stroke="#eeeeec" fill="none" style=""></path><path stroke-width="2" d="M120,74H130" stroke="#eeeeec" fill="none" style=""></path><path stroke-width="2" d="M60,74H70" stroke="#eeeeec" fill="none" style=""></path><path stroke-width="2" d="M426,74H416" stroke="#eeeeec" fill="none" style=""></path><path stroke-width="2" d="M239,74H249" stroke="#eeeeec" fill="none" style=""></path><path stroke-width="2" d="M386,74Q396,74,396,84V86Q396,96,386,96H279Q269,96,269,86V84Q269,74,279,74" stroke="#eeeeec" fill="none" style=""></path><path stroke-width="2" d="M249,74Q259,74,259,64V62Q259,52,269,52H396Q406,52,406,62V64Q406,74,416,74" stroke="#eeeeec" fill="none" style=""></path><path stroke-width="2" d="M416,74H386" stroke="#eeeeec" fill="none" style=""></path><path stroke-width="2" d="M249,74H279" stroke="#eeeeec" fill="none" style=""></path><path stroke-width="2" d="M219,74Q229,74,229,84V86Q229,96,219,96H140Q130,96,130,86V84Q130,74,140,74" stroke="#eeeeec" fill="none" style=""></path><path stroke-width="2" d="M229,74H219" stroke="#eeeeec" fill="none" style=""></path><path stroke-width="2" d="M130,74H140" stroke="#eeeeec" fill="none" style=""></path><desc>Created with Raphaël 2.1.0</desc><defs></defs><rect style="" stroke="#d3d7cf" fill="#d3d7cf" ry="3" rx="3" r="0" height="102" width="40" y="23" x="20"></rect><text font-size="10px" fill="#eeeeec" stroke="none" font="10px &quot;Arial&quot;" text-anchor="middle" y="16.5" x="37.5" style="text-anchor: middle; font: 10px &quot;Arial&quot;;"><tspan dy="3.5">One of:</tspan></text><rect style="" stroke="#204a87" fill="#204a87" ry="3" rx="3" r="0" height="24" width="21" y="96" x="29.5"></rect><text font-size="12px" fill="#eeeeec" stroke="none" font="10px &quot;Arial&quot;" text-anchor="middle" y="108" x="40" style="text-anchor: middle; font: 12px &quot;Arial&quot;;"><tspan dy="4">!</tspan></text><rect style="" stroke="#204a87" fill="#204a87" ry="3" rx="3" r="0" height="24" width="30" y="62" x="25"></rect><text font-size="12px" fill="#eeeeec" stroke="none" font="10px &quot;Arial&quot;" text-anchor="middle" y="74" x="40" style="text-anchor: middle; font: 12px &quot;Arial&quot;;"><tspan dy="4">@</tspan></text><rect style="" stroke="#204a87" fill="#204a87" ry="3" rx="3" r="0" height="24" width="21" y="28" x="29.5"></rect><text font-size="12px" fill="#eeeeec" stroke="none" font="10px &quot;Arial&quot;" text-anchor="middle" y="40" x="40" style="text-anchor: middle; font: 12px &quot;Arial&quot;;"><tspan dy="4">.</tspan></text><rect style="" stroke="#204a87" fill="#204a87" ry="3" rx="3" r="0" height="24" width="50" y="62" x="70"></rect><text font-size="12px" fill="#eeeeec" stroke="none" font="10px &quot;Arial&quot;" text-anchor="middle" y="74" x="95" style="text-anchor: middle; font: 12px &quot;Arial&quot;;"><tspan dy="4">lastfm</tspan></text><rect stroke-width="2" stroke-dasharray="6,2" style="" stroke="#a0a0a0" fill="none" ry="3" rx="3" r="0" height="64" width="187" y="42" x="239"></rect><text font-size="10px" fill="#eeeeec" stroke="none" font="10px &quot;Arial&quot;" text-anchor="middle" y="35.5" x="261" style="text-anchor: middle; font: 10px &quot;Arial&quot;;"><tspan dy="3.5">Nickname</tspan></text><rect style="" stroke="#4e9a06" fill="#4e9a06" ry="3" rx="3" r="0" height="24" width="107" y="62" x="279"></rect><text font-size="12px" fill="#eeeeec" stroke="none" font="10px &quot;Arial&quot;" text-anchor="middle" y="74" x="332.5" style="text-anchor: middle; font: 12px &quot;Arial&quot;;"><tspan dy="4">word</tspan></text><rect style="" stroke="#4e9a06" fill="#4e9a06" ry="3" rx="3" r="0" height="24" width="79" y="62" x="140"></rect><text font-size="12px" fill="#eeeeec" stroke="none" font="10px &quot;Arial&quot;" text-anchor="middle" y="74" x="179.5" style="text-anchor: middle; font: 12px &quot;Arial&quot;;"><tspan dy="4">whitespace</tspan></text><path stroke-width="2" d="M10,74H20" stroke="#eeeeec" fill="none" style=""></path><circle stroke-width="2" style="" stroke="#000" fill="#6b6659" r="5" cy="74" cx="10"></circle><path stroke-width="2" d="M436,74H426" stroke="#eeeeec" fill="none" style=""></path><circle stroke-width="2" style="" stroke="#000" fill="#6b6659" r="5" cy="74" cx="436"></circle></svg>
