<svg style="overflow: hidden; position: relative; top: 0.300003px;" xmlns="http://www.w3.org/2000/svg" width="1083" version="1.1" height="314"><path stroke-width="2" d="M889,175H899" stroke="#eeeeec" fill="none" style=""></path><path stroke-width="2" d="M740,175H750" stroke="#eeeeec" fill="none" style=""></path><path stroke-width="2" d="M549,175H559" stroke="#eeeeec" fill="none" style=""></path><path stroke-width="2" d="M232,175H242" stroke="#eeeeec" fill="none" style=""></path><path stroke-width="2" d="M123,175H133" stroke="#eeeeec" fill="none" style=""></path><path stroke-width="2" d="M60,175H70" stroke="#eeeeec" fill="none" style=""></path><path stroke-width="2" d="M1063,175H1053" stroke="#eeeeec" fill="none" style=""></path><path stroke-width="2" d="M899,175H909" stroke="#eeeeec" fill="none" style=""></path><path stroke-width="2" d="M1023,175Q1033,175,1033,185V187Q1033,197,1023,197H939Q929,197,929,187V185Q929,175,939,175" stroke="#eeeeec" fill="none" style=""></path><path stroke-width="2" d="M909,175Q919,175,919,165V163Q919,153,929,153H1033Q1043,153,1043,163V165Q1043,175,1053,175" stroke="#eeeeec" fill="none" style=""></path><path stroke-width="2" d="M1053,175H1023" stroke="#eeeeec" fill="none" style=""></path><path stroke-width="2" d="M909,175H939" stroke="#eeeeec" fill="none" style=""></path><path stroke-width="2" d="M859,175Q869,175,869,185V187Q869,197,859,197H780Q770,197,770,187V185Q770,175,780,175" stroke="#eeeeec" fill="none" style=""></path><path stroke-width="2" d="M750,175Q760,175,760,165V163Q760,153,770,153H869Q879,153,879,163V165Q879,175,889,175" stroke="#eeeeec" fill="none" style=""></path><path stroke-width="2" d="M889,175H859" stroke="#eeeeec" fill="none" style=""></path><path stroke-width="2" d="M750,175H780" stroke="#eeeeec" fill="none" style=""></path><path stroke-width="2" d="M740,175H730" stroke="#eeeeec" fill="none" style=""></path><path stroke-width="2" d="M559,175H569" stroke="#eeeeec" fill="none" style=""></path><path stroke-width="2" d="M700,175Q710,175,710,185V243Q710,253,700,253H599Q589,253,589,243V185Q589,175,599,175" stroke="#eeeeec" fill="none" style=""></path><path stroke-width="2" d="M569,175Q579,175,579,165V94Q579,84,589,84H710Q720,84,720,94V165Q720,175,730,175" stroke="#eeeeec" fill="none" style=""></path><path stroke-width="2" d="M730,175H700" stroke="#eeeeec" fill="none" style=""></path><path stroke-width="2" d="M569,175H599" stroke="#eeeeec" fill="none" style=""></path><path stroke-width="2" d="M652,175H662" stroke="#eeeeec" fill="none" style=""></path><path stroke-width="2" d="M642,175Q652,175,652,185V187Q652,197,642,197H609Q599,197,599,187V185Q599,175,609,175" stroke="#eeeeec" fill="none" style=""></path><path stroke-width="2" d="M652,175H642" stroke="#eeeeec" fill="none" style=""></path><path stroke-width="2" d="M599,175H609" stroke="#eeeeec" fill="none" style=""></path><path stroke-width="2" d="M242,175Q252,175,252,165V20Q252,10,262,10H529Q539,10,539,20V165Q539,175,549,175" stroke="#eeeeec" fill="none" style=""></path><path stroke-width="2" d="M549,175H529" stroke="#eeeeec" fill="none" style=""></path><path stroke-width="2" d="M242,175H262" stroke="#eeeeec" fill="none" style=""></path><path stroke-width="2" d="M529,175H519" stroke="#eeeeec" fill="none" style=""></path><path stroke-width="2" d="M262,175H272" stroke="#eeeeec" fill="none" style=""></path><path stroke-width="2" d="M370,175H380" stroke="#eeeeec" fill="none" style=""></path><path stroke-width="2" d="M307,175H317" stroke="#eeeeec" fill="none" style=""></path><path stroke-width="2" d="M519,175Q509,175,509,185V187Q509,197,499,197H497.5" stroke="#eeeeec" fill="none" style=""></path><path stroke-width="2" d="M380,175Q390,175,390,185V187Q390,197,400,197H401.5" stroke="#eeeeec" fill="none" style=""></path><path stroke-width="2" d="M519,175Q509,175,509,165V163Q509,153,499,153H499" stroke="#eeeeec" fill="none" style=""></path><path stroke-width="2" d="M380,175Q390,175,390,165V163Q390,153,400,153H400" stroke="#eeeeec" fill="none" style=""></path><path stroke-width="2" d="M489,153Q499,153,499,163V165Q499,175,489,175H410Q400,175,400,165V163Q400,153,410,153" stroke="#eeeeec" fill="none" style=""></path><path stroke-width="2" d="M499,153H489" stroke="#eeeeec" fill="none" style=""></path><path stroke-width="2" d="M400,153H410" stroke="#eeeeec" fill="none" style=""></path><path stroke-width="2" d="M360,175Q370,175,370,185V187Q370,197,360,197H327Q317,197,317,187V185Q317,175,327,175" stroke="#eeeeec" fill="none" style=""></path><path stroke-width="2" d="M370,175H360" stroke="#eeeeec" fill="none" style=""></path><path stroke-width="2" d="M317,175H327" stroke="#eeeeec" fill="none" style=""></path><path stroke-width="2" d="M222,175Q232,175,232,185V187Q232,197,222,197H143Q133,197,133,187V185Q133,175,143,175" stroke="#eeeeec" fill="none" style=""></path><path stroke-width="2" d="M232,175H222" stroke="#eeeeec" fill="none" style=""></path><path stroke-width="2" d="M133,175H143" stroke="#eeeeec" fill="none" style=""></path><desc>Created with Raphaël 2.1.0</desc><defs></defs><rect style="" stroke="#d3d7cf" fill="#d3d7cf" ry="3" rx="3" r="0" height="102" width="40" y="124" x="20"></rect><text font-size="10px" fill="#eeeeec" stroke="none" font="10px &quot;Arial&quot;" text-anchor="middle" y="117.5" x="37.5" style="text-anchor: middle; font: 10px &quot;Arial&quot;;"><tspan dy="3.5">One of:</tspan></text><rect style="" stroke="#204a87" fill="#204a87" ry="3" rx="3" r="0" height="24" width="21" y="197" x="29.5"></rect><text font-size="12px" fill="#eeeeec" stroke="none" font="10px &quot;Arial&quot;" text-anchor="middle" y="209" x="40" style="text-anchor: middle; font: 12px &quot;Arial&quot;;"><tspan dy="4">!</tspan></text><rect style="" stroke="#204a87" fill="#204a87" ry="3" rx="3" r="0" height="24" width="30" y="163" x="25"></rect><text font-size="12px" fill="#eeeeec" stroke="none" font="10px &quot;Arial&quot;" text-anchor="middle" y="175" x="40" style="text-anchor: middle; font: 12px &quot;Arial&quot;;"><tspan dy="4">@</tspan></text><rect style="" stroke="#204a87" fill="#204a87" ry="3" rx="3" r="0" height="24" width="21" y="129" x="29.5"></rect><text font-size="12px" fill="#eeeeec" stroke="none" font="10px &quot;Arial&quot;" text-anchor="middle" y="141" x="40" style="text-anchor: middle; font: 12px &quot;Arial&quot;;"><tspan dy="4">.</tspan></text><rect style="" stroke="#204a87" fill="#204a87" ry="3" rx="3" r="0" height="24" width="53" y="163" x="70"></rect><text font-size="12px" fill="#eeeeec" stroke="none" font="10px &quot;Arial&quot;" text-anchor="middle" y="175" x="96.5" style="text-anchor: middle; font: 12px &quot;Arial&quot;;"><tspan dy="4">listens</tspan></text><rect stroke-width="2" stroke-dasharray="6,2" style="" stroke="#a0a0a0" fill="none" ry="3" rx="3" r="0" height="189" width="181" y="74" x="559"></rect><text font-size="10px" fill="#eeeeec" stroke="none" font="10px &quot;Arial&quot;" text-anchor="middle" y="67.5" x="581" style="text-anchor: middle; font: 10px &quot;Arial&quot;;"><tspan dy="3.5">Time period</tspan></text><rect style="" stroke="#d3d7cf" fill="#d3d7cf" ry="3" rx="3" r="0" height="136" width="38" y="107" x="662"></rect><text font-size="10px" fill="#eeeeec" stroke="none" font="10px &quot;Arial&quot;" text-anchor="middle" y="100.5" x="679.5" style="text-anchor: middle; font: 10px &quot;Arial&quot;;"><tspan dy="3.5">One of:</tspan></text><rect style="" stroke="#204a87" fill="#204a87" ry="3" rx="3" r="0" height="24" width="24" y="214" x="669"></rect><text font-size="12px" fill="#eeeeec" stroke="none" font="10px &quot;Arial&quot;" text-anchor="middle" y="226" x="681" style="text-anchor: middle; font: 12px &quot;Arial&quot;;"><tspan dy="4">s</tspan></text><rect style="" stroke="#204a87" fill="#204a87" ry="3" rx="3" r="0" height="24" width="28" y="180" x="667"></rect><text font-size="12px" fill="#eeeeec" stroke="none" font="10px &quot;Arial&quot;" text-anchor="middle" y="192" x="681" style="text-anchor: middle; font: 12px &quot;Arial&quot;;"><tspan dy="4">m</tspan></text><rect style="" stroke="#204a87" fill="#204a87" ry="3" rx="3" r="0" height="24" width="25" y="146" x="668.5"></rect><text font-size="12px" fill="#eeeeec" stroke="none" font="10px &quot;Arial&quot;" text-anchor="middle" y="158" x="681" style="text-anchor: middle; font: 12px &quot;Arial&quot;;"><tspan dy="4">h</tspan></text><rect style="" stroke="#204a87" fill="#204a87" ry="3" rx="3" r="0" height="24" width="25" y="112" x="668.5"></rect><text font-size="12px" fill="#eeeeec" stroke="none" font="10px &quot;Arial&quot;" text-anchor="middle" y="124" x="681" style="text-anchor: middle; font: 12px &quot;Arial&quot;;"><tspan dy="4">d</tspan></text><rect style="" stroke="#4e9a06" fill="#4e9a06" ry="3" rx="3" r="0" height="24" width="33" y="163" x="609"></rect><text font-size="12px" fill="#eeeeec" stroke="none" font="10px &quot;Arial&quot;" text-anchor="middle" y="175" x="625.5" style="text-anchor: middle; font: 12px &quot;Arial&quot;;"><tspan dy="4">digit</tspan></text><rect stroke-width="2" stroke-dasharray="6,2" style="" stroke="#a0a0a0" fill="none" ry="3" rx="3" r="0" height="64" width="164" y="143" x="899"></rect><text font-size="10px" fill="#eeeeec" stroke="none" font="10px &quot;Arial&quot;" text-anchor="middle" y="136.5" x="921" style="text-anchor: middle; font: 10px &quot;Arial&quot;;"><tspan dy="3.5">Username</tspan></text><rect style="" stroke="#6b6659" fill="#6b6659" ry="0" rx="0" r="0" height="24" width="84" y="163" x="939"></rect><text font-size="12px" fill="#ffffff" stroke="none" font="10px &quot;Arial&quot;" text-anchor="middle" y="175" x="981" style="text-anchor: middle; font: 12px &quot;Arial&quot;;"><tspan dy="4">any character</tspan></text><rect style="" stroke="#4e9a06" fill="#4e9a06" ry="3" rx="3" r="0" height="24" width="79" y="163" x="143"></rect><text font-size="12px" fill="#eeeeec" stroke="none" font="10px &quot;Arial&quot;" text-anchor="middle" y="175" x="182.5" style="text-anchor: middle; font: 12px &quot;Arial&quot;;"><tspan dy="4">whitespace</tspan></text><rect stroke-width="2" stroke-dasharray="6,2" style="" stroke="#a0a0a0" fill="none" ry="3" rx="3" r="0" height="271" width="267" y="33" x="262"></rect><text font-size="10px" fill="#eeeeec" stroke="none" font="10px &quot;Arial&quot;" text-anchor="middle" y="26.5" x="284" style="text-anchor: middle; font: 10px &quot;Arial&quot;;"><tspan dy="3.5">Graph type</tspan></text><rect style="" stroke="#4e9a06" fill="#4e9a06" ry="3" rx="3" r="0" height="24" width="96" y="185" x="401.5"></rect><text font-size="12px" fill="#eeeeec" stroke="none" font="10px &quot;Arial&quot;" text-anchor="middle" y="197" x="449.5" style="text-anchor: middle; font: 12px &quot;Arial&quot;;"><tspan dy="4">word boundary</tspan></text><rect style="" stroke="#4e9a06" fill="#4e9a06" ry="3" rx="3" r="0" height="24" width="79" y="141" x="410"></rect><text font-size="12px" fill="#eeeeec" stroke="none" font="10px &quot;Arial&quot;" text-anchor="middle" y="153" x="449.5" style="text-anchor: middle; font: 12px &quot;Arial&quot;;"><tspan dy="4">whitespace</tspan></text><rect style="" stroke="#4e9a06" fill="#4e9a06" ry="3" rx="3" r="0" height="24" width="33" y="163" x="327"></rect><text font-size="12px" fill="#eeeeec" stroke="none" font="10px &quot;Arial&quot;" text-anchor="middle" y="175" x="343.5" style="text-anchor: middle; font: 12px &quot;Arial&quot;;"><tspan dy="4">digit</tspan></text><rect style="" stroke="#d3d7cf" fill="#d3d7cf" ry="3" rx="3" r="0" height="238" width="35" y="56" x="272"></rect><text font-size="10px" fill="#eeeeec" stroke="none" font="10px &quot;Arial&quot;" text-anchor="middle" y="49.5" x="289.5" style="text-anchor: middle; font: 10px &quot;Arial&quot;;"><tspan dy="3.5">One of:</tspan></text><rect style="" stroke="#204a87" fill="#204a87" ry="3" rx="3" r="0" height="24" width="21" y="265" x="279"></rect><text font-size="12px" fill="#eeeeec" stroke="none" font="10px &quot;Arial&quot;" text-anchor="middle" y="277" x="289.5" style="text-anchor: middle; font: 12px &quot;Arial&quot;;"><tspan dy="4">!</tspan></text><rect style="" stroke="#204a87" fill="#204a87" ry="3" rx="3" r="0" height="24" width="21" y="231" x="279"></rect><text font-size="12px" fill="#eeeeec" stroke="none" font="10px &quot;Arial&quot;" text-anchor="middle" y="243" x="289.5" style="text-anchor: middle; font: 12px &quot;Arial&quot;;"><tspan dy="4">|</tspan></text><rect style="" stroke="#204a87" fill="#204a87" ry="3" rx="3" r="0" height="24" width="25" y="197" x="277"></rect><text font-size="12px" fill="#eeeeec" stroke="none" font="10px &quot;Arial&quot;" text-anchor="middle" y="209" x="289.5" style="text-anchor: middle; font: 12px &quot;Arial&quot;;"><tspan dy="4">+</tspan></text><rect style="" stroke="#204a87" fill="#204a87" ry="3" rx="3" r="0" height="24" width="25" y="163" x="277"></rect><text font-size="12px" fill="#eeeeec" stroke="none" font="10px &quot;Arial&quot;" text-anchor="middle" y="175" x="289.5" style="text-anchor: middle; font: 12px &quot;Arial&quot;;"><tspan dy="4">#</tspan></text><rect style="" stroke="#204a87" fill="#204a87" ry="3" rx="3" r="0" height="24" width="21" y="129" x="279"></rect><text font-size="12px" fill="#eeeeec" stroke="none" font="10px &quot;Arial&quot;" text-anchor="middle" y="141" x="289.5" style="text-anchor: middle; font: 12px &quot;Arial&quot;;"><tspan dy="4">:</tspan></text><rect style="" stroke="#204a87" fill="#204a87" ry="3" rx="3" r="0" height="24" width="21" y="95" x="279"></rect><text font-size="12px" fill="#eeeeec" stroke="none" font="10px &quot;Arial&quot;" text-anchor="middle" y="107" x="289.5" style="text-anchor: middle; font: 12px &quot;Arial&quot;;"><tspan dy="4">.</tspan></text><rect style="" stroke="#204a87" fill="#204a87" ry="3" rx="3" r="0" height="24" width="22" y="61" x="278.5"></rect><text font-size="12px" fill="#eeeeec" stroke="none" font="10px &quot;Arial&quot;" text-anchor="middle" y="73" x="289.5" style="text-anchor: middle; font: 12px &quot;Arial&quot;;"><tspan dy="4">-</tspan></text><rect style="" stroke="#4e9a06" fill="#4e9a06" ry="3" rx="3" r="0" height="24" width="79" y="163" x="780"></rect><text font-size="12px" fill="#eeeeec" stroke="none" font="10px &quot;Arial&quot;" text-anchor="middle" y="175" x="819.5" style="text-anchor: middle; font: 12px &quot;Arial&quot;;"><tspan dy="4">whitespace</tspan></text><path stroke-width="2" d="M10,175H20" stroke="#eeeeec" fill="none" style=""></path><circle stroke-width="2" style="" stroke="#000" fill="#6b6659" r="5" cy="175" cx="10"></circle><path stroke-width="2" d="M1073,175H1063" stroke="#eeeeec" fill="none" style=""></path><circle stroke-width="2" style="" stroke="#000" fill="#6b6659" r="5" cy="175" cx="1073"></circle></svg>
