<svg style="overflow: hidden; position: relative; top: 0.300003px;" xmlns="http://www.w3.org/2000/svg" width="732" version="1.1" height="135"><path stroke-width="2" d="M515,74H525" stroke="#eeeeec" fill="none" style=""></path><path stroke-width="2" d="M366,74H376" stroke="#eeeeec" fill="none" style=""></path><path stroke-width="2" d="M211,74H221" stroke="#eeeeec" fill="none" style=""></path><path stroke-width="2" d="M102,74H112" stroke="#eeeeec" fill="none" style=""></path><path stroke-width="2" d="M60,74H70" stroke="#eeeeec" fill="none" style=""></path><path stroke-width="2" d="M712,74H702" stroke="#eeeeec" fill="none" style=""></path><path stroke-width="2" d="M525,74H535" stroke="#eeeeec" fill="none" style=""></path><path stroke-width="2" d="M672,74Q682,74,682,84V86Q682,96,672,96H565Q555,96,555,86V84Q555,74,565,74" stroke="#eeeeec" fill="none" style=""></path><path stroke-width="2" d="M535,74Q545,74,545,64V62Q545,52,555,52H682Q692,52,692,62V64Q692,74,702,74" stroke="#eeeeec" fill="none" style=""></path><path stroke-width="2" d="M702,74H672" stroke="#eeeeec" fill="none" style=""></path><path stroke-width="2" d="M535,74H565" stroke="#eeeeec" fill="none" style=""></path><path stroke-width="2" d="M485,74Q495,74,495,84V86Q495,96,485,96H406Q396,96,396,86V84Q396,74,406,74" stroke="#eeeeec" fill="none" style=""></path><path stroke-width="2" d="M376,74Q386,74,386,64V62Q386,52,396,52H495Q505,52,505,62V64Q505,74,515,74" stroke="#eeeeec" fill="none" style=""></path><path stroke-width="2" d="M515,74H485" stroke="#eeeeec" fill="none" style=""></path><path stroke-width="2" d="M376,74H406" stroke="#eeeeec" fill="none" style=""></path><path stroke-width="2" d="M221,74Q231,74,231,64V39Q231,29,241,29H346Q356,29,356,39V64Q356,74,366,74" stroke="#eeeeec" fill="none" style=""></path><path stroke-width="2" d="M366,74H346" stroke="#eeeeec" fill="none" style=""></path><path stroke-width="2" d="M221,74H241" stroke="#eeeeec" fill="none" style=""></path><path stroke-width="2" d="M346,74H336" stroke="#eeeeec" fill="none" style=""></path><path stroke-width="2" d="M241,74H251" stroke="#eeeeec" fill="none" style=""></path><path stroke-width="2" d="M273,74H283" stroke="#eeeeec" fill="none" style=""></path><path stroke-width="2" d="M326,74Q336,74,336,84V86Q336,96,326,96H293Q283,96,283,86V84Q283,74,293,74" stroke="#eeeeec" fill="none" style=""></path><path stroke-width="2" d="M336,74H326" stroke="#eeeeec" fill="none" style=""></path><path stroke-width="2" d="M283,74H293" stroke="#eeeeec" fill="none" style=""></path><path stroke-width="2" d="M201,74Q211,74,211,84V86Q211,96,201,96H122Q112,96,112,86V84Q112,74,122,74" stroke="#eeeeec" fill="none" style=""></path><path stroke-width="2" d="M211,74H201" stroke="#eeeeec" fill="none" style=""></path><path stroke-width="2" d="M112,74H122" stroke="#eeeeec" fill="none" style=""></path><desc>Created with Raphaël 2.1.0</desc><defs></defs><rect style="" stroke="#d3d7cf" fill="#d3d7cf" ry="3" rx="3" r="0" height="102" width="40" y="23" x="20"></rect><text font-size="10px" fill="#eeeeec" stroke="none" font="10px &quot;Arial&quot;" text-anchor="middle" y="16.5" x="37.5" style="text-anchor: middle; font: 10px &quot;Arial&quot;;"><tspan dy="3.5">One of:</tspan></text><rect style="" stroke="#204a87" fill="#204a87" ry="3" rx="3" r="0" height="24" width="21" y="96" x="29.5"></rect><text font-size="12px" fill="#eeeeec" stroke="none" font="10px &quot;Arial&quot;" text-anchor="middle" y="108" x="40" style="text-anchor: middle; font: 12px &quot;Arial&quot;;"><tspan dy="4">"!"</tspan></text><rect style="" stroke="#204a87" fill="#204a87" ry="3" rx="3" r="0" height="24" width="30" y="62" x="25"></rect><text font-size="12px" fill="#eeeeec" stroke="none" font="10px &quot;Arial&quot;" text-anchor="middle" y="74" x="40" style="text-anchor: middle; font: 12px &quot;Arial&quot;;"><tspan dy="4">"@"</tspan></text><rect style="" stroke="#204a87" fill="#204a87" ry="3" rx="3" r="0" height="24" width="21" y="28" x="29.5"></rect><text font-size="12px" fill="#eeeeec" stroke="none" font="10px &quot;Arial&quot;" text-anchor="middle" y="40" x="40" style="text-anchor: middle; font: 12px &quot;Arial&quot;;"><tspan dy="4">"."</tspan></text><rect style="" stroke="#204a87" fill="#204a87" ry="3" rx="3" r="0" height="24" width="32" y="62" x="70"></rect><text font-size="12px" fill="#eeeeec" stroke="none" font="10px &quot;Arial&quot;" text-anchor="middle" y="74" x="86" style="text-anchor: middle; font: 12px &quot;Arial&quot;;"><tspan dy="4">"np"</tspan></text><rect stroke-width="2" stroke-dasharray="6,2" style="" stroke="#a0a0a0" fill="none" ry="3" rx="3" r="0" height="64" width="187" y="42" x="525"></rect><text font-size="10px" fill="#eeeeec" stroke="none" font="10px &quot;Arial&quot;" text-anchor="middle" y="35.5" x="547" style="text-anchor: middle; font: 10px &quot;Arial&quot;;"><tspan dy="3.5">Username</tspan></text><rect style="" stroke="#4e9a06" fill="#4e9a06" ry="3" rx="3" r="0" height="24" width="107" y="62" x="565"></rect><text font-size="12px" fill="#eeeeec" stroke="none" font="10px &quot;Arial&quot;" text-anchor="middle" y="74" x="618.5" style="text-anchor: middle; font: 12px &quot;Arial&quot;;"><tspan dy="4">word</tspan></text><rect style="" stroke="#4e9a06" fill="#4e9a06" ry="3" rx="3" r="0" height="24" width="79" y="62" x="122"></rect><text font-size="12px" fill="#eeeeec" stroke="none" font="10px &quot;Arial&quot;" text-anchor="middle" y="74" x="161.5" style="text-anchor: middle; font: 12px &quot;Arial&quot;;"><tspan dy="4">whitespace</tspan></text><rect stroke-width="2" stroke-dasharray="6,2" style="" stroke="#a0a0a0" fill="none" ry="3" rx="3" r="0" height="54" width="105" y="52" x="241"></rect><text font-size="10px" fill="#eeeeec" stroke="none" font="10px &quot;Arial&quot;" text-anchor="middle" y="45.5" x="263" style="text-anchor: middle; font: 10px &quot;Arial&quot;;"><tspan dy="3.5"># of results</tspan></text><rect style="" stroke="#4e9a06" fill="#4e9a06" ry="3" rx="3" r="0" height="24" width="33" y="62" x="293"></rect><text font-size="12px" fill="#eeeeec" stroke="none" font="10px &quot;Arial&quot;" text-anchor="middle" y="74" x="309.5" style="text-anchor: middle; font: 12px &quot;Arial&quot;;"><tspan dy="4">digit</tspan></text><rect style="" stroke="#204a87" fill="#204a87" ry="3" rx="3" r="0" height="24" width="22" y="62" x="251"></rect><text font-size="12px" fill="#eeeeec" stroke="none" font="10px &quot;Arial&quot;" text-anchor="middle" y="74" x="262" style="text-anchor: middle; font: 12px &quot;Arial&quot;;"><tspan dy="4">"-"</tspan></text><rect style="" stroke="#4e9a06" fill="#4e9a06" ry="3" rx="3" r="0" height="24" width="79" y="62" x="406"></rect><text font-size="12px" fill="#eeeeec" stroke="none" font="10px &quot;Arial&quot;" text-anchor="middle" y="74" x="445.5" style="text-anchor: middle; font: 12px &quot;Arial&quot;;"><tspan dy="4">whitespace</tspan></text><path stroke-width="2" d="M10,74H20" stroke="#eeeeec" fill="none" style=""></path><circle stroke-width="2" style="" stroke="#000" fill="#6b6659" r="5" cy="74" cx="10"></circle><path stroke-width="2" d="M722,74H712" stroke="#eeeeec" fill="none" style=""></path><circle stroke-width="2" style="" stroke="#000" fill="#6b6659" r="5" cy="74" cx="722"></circle></svg>
