<svg style="overflow: hidden; position: relative; top: 0.300003px;" xmlns="http://www.w3.org/2000/svg" width="728" version="1.1" height="135"><path stroke-width="2" d="M402,74H412" stroke="#eeeeec" fill="none" style=""></path><path stroke-width="2" d="M245,74H255" stroke="#eeeeec" fill="none" style=""></path><path stroke-width="2" d="M136,74H146" stroke="#eeeeec" fill="none" style=""></path><path stroke-width="2" d="M60,74H70" stroke="#eeeeec" fill="none" style=""></path><path stroke-width="2" d="M412,74Q422,74,422,64V39Q422,29,432,29H688Q698,29,698,39V64Q698,74,708,74" stroke="#eeeeec" fill="none" style=""></path><path stroke-width="2" d="M708,74H688" stroke="#eeeeec" fill="none" style=""></path><path stroke-width="2" d="M412,74H432" stroke="#eeeeec" fill="none" style=""></path><path stroke-width="2" d="M531,74H541" stroke="#eeeeec" fill="none" style=""></path><path stroke-width="2" d="M688,74H678" stroke="#eeeeec" fill="none" style=""></path><path stroke-width="2" d="M541,74H551" stroke="#eeeeec" fill="none" style=""></path><path stroke-width="2" d="M668,74Q678,74,678,84V86Q678,96,668,96H561Q551,96,551,86V84Q551,74,561,74" stroke="#eeeeec" fill="none" style=""></path><path stroke-width="2" d="M678,74H668" stroke="#eeeeec" fill="none" style=""></path><path stroke-width="2" d="M551,74H561" stroke="#eeeeec" fill="none" style=""></path><path stroke-width="2" d="M521,74Q531,74,531,84V86Q531,96,521,96H442Q432,96,432,86V84Q432,74,442,74" stroke="#eeeeec" fill="none" style=""></path><path stroke-width="2" d="M531,74H521" stroke="#eeeeec" fill="none" style=""></path><path stroke-width="2" d="M432,74H442" stroke="#eeeeec" fill="none" style=""></path><path stroke-width="2" d="M402,74H392" stroke="#eeeeec" fill="none" style=""></path><path stroke-width="2" d="M255,74H265" stroke="#eeeeec" fill="none" style=""></path><path stroke-width="2" d="M382,74Q392,74,392,84V86Q392,96,382,96H275Q265,96,265,86V84Q265,74,275,74" stroke="#eeeeec" fill="none" style=""></path><path stroke-width="2" d="M392,74H382" stroke="#eeeeec" fill="none" style=""></path><path stroke-width="2" d="M265,74H275" stroke="#eeeeec" fill="none" style=""></path><path stroke-width="2" d="M235,74Q245,74,245,84V86Q245,96,235,96H156Q146,96,146,86V84Q146,74,156,74" stroke="#eeeeec" fill="none" style=""></path><path stroke-width="2" d="M245,74H235" stroke="#eeeeec" fill="none" style=""></path><path stroke-width="2" d="M146,74H156" stroke="#eeeeec" fill="none" style=""></path><desc>Created with Raphaël 2.1.0</desc><defs></defs><rect style="" stroke="#d3d7cf" fill="#d3d7cf" ry="3" rx="3" r="0" height="102" width="40" y="23" x="20"></rect><text font-size="10px" fill="#eeeeec" stroke="none" font="10px &quot;Arial&quot;" text-anchor="middle" y="16.5" x="37.5" style="text-anchor: middle; font: 10px &quot;Arial&quot;;"><tspan dy="3.5">One of:</tspan></text><rect style="" stroke="#204a87" fill="#204a87" ry="3" rx="3" r="0" height="24" width="21" y="96" x="29.5"></rect><text font-size="12px" fill="#eeeeec" stroke="none" font="10px &quot;Arial&quot;" text-anchor="middle" y="108" x="40" style="text-anchor: middle; font: 12px &quot;Arial&quot;;"><tspan dy="4">!</tspan></text><rect style="" stroke="#204a87" fill="#204a87" ry="3" rx="3" r="0" height="24" width="30" y="62" x="25"></rect><text font-size="12px" fill="#eeeeec" stroke="none" font="10px &quot;Arial&quot;" text-anchor="middle" y="74" x="40" style="text-anchor: middle; font: 12px &quot;Arial&quot;;"><tspan dy="4">@</tspan></text><rect style="" stroke="#204a87" fill="#204a87" ry="3" rx="3" r="0" height="24" width="21" y="28" x="29.5"></rect><text font-size="12px" fill="#eeeeec" stroke="none" font="10px &quot;Arial&quot;" text-anchor="middle" y="40" x="40" style="text-anchor: middle; font: 12px &quot;Arial&quot;;"><tspan dy="4">.</tspan></text><rect style="" stroke="#204a87" fill="#204a87" ry="3" rx="3" r="0" height="24" width="66" y="62" x="70"></rect><text font-size="12px" fill="#eeeeec" stroke="none" font="10px &quot;Arial&quot;" text-anchor="middle" y="74" x="103" style="text-anchor: middle; font: 12px &quot;Arial&quot;;"><tspan dy="4">compare</tspan></text><rect stroke-width="2" stroke-dasharray="6,2" style="" stroke="#a0a0a0" fill="none" ry="3" rx="3" r="0" height="54" width="147" y="52" x="255"></rect><text font-size="10px" fill="#eeeeec" stroke="none" font="10px &quot;Arial&quot;" text-anchor="middle" y="45.5" x="277" style="text-anchor: middle; font: 10px &quot;Arial&quot;;"><tspan dy="3.5">First user</tspan></text><rect style="" stroke="#4e9a06" fill="#4e9a06" ry="3" rx="3" r="0" height="24" width="107" y="62" x="275"></rect><text font-size="12px" fill="#eeeeec" stroke="none" font="10px &quot;Arial&quot;" text-anchor="middle" y="74" x="328.5" style="text-anchor: middle; font: 12px &quot;Arial&quot;;"><tspan dy="4">word</tspan></text><rect style="" stroke="#4e9a06" fill="#4e9a06" ry="3" rx="3" r="0" height="24" width="79" y="62" x="156"></rect><text font-size="12px" fill="#eeeeec" stroke="none" font="10px &quot;Arial&quot;" text-anchor="middle" y="74" x="195.5" style="text-anchor: middle; font: 12px &quot;Arial&quot;;"><tspan dy="4">whitespace</tspan></text><rect stroke-width="2" stroke-dasharray="6,2" style="" stroke="#a0a0a0" fill="none" ry="3" rx="3" r="0" height="54" width="147" y="52" x="541"></rect><text font-size="10px" fill="#eeeeec" stroke="none" font="10px &quot;Arial&quot;" text-anchor="middle" y="45.5" x="563" style="text-anchor: middle; font: 10px &quot;Arial&quot;;"><tspan dy="3.5">Second user</tspan></text><rect style="" stroke="#4e9a06" fill="#4e9a06" ry="3" rx="3" r="0" height="24" width="107" y="62" x="561"></rect><text font-size="12px" fill="#eeeeec" stroke="none" font="10px &quot;Arial&quot;" text-anchor="middle" y="74" x="614.5" style="text-anchor: middle; font: 12px &quot;Arial&quot;;"><tspan dy="4">word</tspan></text><rect style="" stroke="#4e9a06" fill="#4e9a06" ry="3" rx="3" r="0" height="24" width="79" y="62" x="442"></rect><text font-size="12px" fill="#eeeeec" stroke="none" font="10px &quot;Arial&quot;" text-anchor="middle" y="74" x="481.5" style="text-anchor: middle; font: 12px &quot;Arial&quot;;"><tspan dy="4">whitespace</tspan></text><path stroke-width="2" d="M10,74H20" stroke="#eeeeec" fill="none" style=""></path><circle stroke-width="2" style="" stroke="#000" fill="#6b6659" r="5" cy="74" cx="10"></circle><path stroke-width="2" d="M718,74H708" stroke="#eeeeec" fill="none" style=""></path><circle stroke-width="2" style="" stroke="#000" fill="#6b6659" r="5" cy="74" cx="718"></circle></svg>
