<svg style="overflow: hidden; position: relative; top: 0.300003px;" xmlns="http://www.w3.org/2000/svg" width="516" version="1.1" height="145"><path stroke-width="2" d="M299,79H309" stroke="#eeeeec" fill="none" style=""></path><path stroke-width="2" d="M190,79H200" stroke="#eeeeec" fill="none" style=""></path><path stroke-width="2" d="M60,79H70" stroke="#eeeeec" fill="none" style=""></path><path stroke-width="2" d="M496,79H486" stroke="#eeeeec" fill="none" style=""></path><path stroke-width="2" d="M309,79H319" stroke="#eeeeec" fill="none" style=""></path><path stroke-width="2" d="M456,79Q466,79,466,89V91Q466,101,456,101H349Q339,101,339,91V89Q339,79,349,79" stroke="#eeeeec" fill="none" style=""></path><path stroke-width="2" d="M319,79Q329,79,329,69V67Q329,57,339,57H466Q476,57,476,67V69Q476,79,486,79" stroke="#eeeeec" fill="none" style=""></path><path stroke-width="2" d="M486,79H456" stroke="#eeeeec" fill="none" style=""></path><path stroke-width="2" d="M319,79H349" stroke="#eeeeec" fill="none" style=""></path><path stroke-width="2" d="M289,79Q299,79,299,89V91Q299,101,289,101H210Q200,101,200,91V89Q200,79,210,79" stroke="#eeeeec" fill="none" style=""></path><path stroke-width="2" d="M299,79H289" stroke="#eeeeec" fill="none" style=""></path><path stroke-width="2" d="M200,79H210" stroke="#eeeeec" fill="none" style=""></path><path stroke-width="2" d="M190,79H180" stroke="#eeeeec" fill="none" style=""></path><path stroke-width="2" d="M70,79H80" stroke="#eeeeec" fill="none" style=""></path><path stroke-width="2" d="M180,79Q170,79,170,89V103Q170,113,160,113H160" stroke="#eeeeec" fill="none" style=""></path><path stroke-width="2" d="M80,79Q90,79,90,89V103Q90,113,100,113H100" stroke="#eeeeec" fill="none" style=""></path><path stroke-width="2" d="M180,79C170,79,170,79,155,79" stroke="#eeeeec" fill="none" style=""></path><path stroke-width="2" d="M80,79C90,79,90,79,105,79" stroke="#eeeeec" fill="none" style=""></path><path stroke-width="2" d="M180,79Q170,79,170,69V55Q170,45,160,45H152" stroke="#eeeeec" fill="none" style=""></path><path stroke-width="2" d="M80,79Q90,79,90,69V55Q90,45,100,45H108" stroke="#eeeeec" fill="none" style=""></path><desc>Created with Raphaël 2.1.0</desc><defs></defs><rect style="" stroke="#d3d7cf" fill="#d3d7cf" ry="3" rx="3" r="0" height="102" width="40" y="28" x="20"></rect><text font-size="10px" fill="#eeeeec" stroke="none" font="10px &quot;Arial&quot;" text-anchor="middle" y="21.5" x="37.5" style="text-anchor: middle; font: 10px &quot;Arial&quot;;"><tspan dy="3.5">One of:</tspan></text><rect style="" stroke="#204a87" fill="#204a87" ry="3" rx="3" r="0" height="24" width="21" y="101" x="29.5"></rect><text font-size="12px" fill="#eeeeec" stroke="none" font="10px &quot;Arial&quot;" text-anchor="middle" y="113" x="40" style="text-anchor: middle; font: 12px &quot;Arial&quot;;"><tspan dy="4">"!"</tspan></text><rect style="" stroke="#204a87" fill="#204a87" ry="3" rx="3" r="0" height="24" width="30" y="67" x="25"></rect><text font-size="12px" fill="#eeeeec" stroke="none" font="10px &quot;Arial&quot;" text-anchor="middle" y="79" x="40" style="text-anchor: middle; font: 12px &quot;Arial&quot;;"><tspan dy="4">"@"</tspan></text><rect style="" stroke="#204a87" fill="#204a87" ry="3" rx="3" r="0" height="24" width="21" y="33" x="29.5"></rect><text font-size="12px" fill="#eeeeec" stroke="none" font="10px &quot;Arial&quot;" text-anchor="middle" y="45" x="40" style="text-anchor: middle; font: 12px &quot;Arial&quot;;"><tspan dy="4">"."</tspan></text><rect stroke-width="2" stroke-dasharray="6,2" style="" stroke="#a0a0a0" fill="none" ry="3" rx="3" r="0" height="112" width="120" y="23" x="70"></rect><text font-size="10px" fill="#eeeeec" stroke="none" font="10px &quot;Arial&quot;" text-anchor="middle" y="16.5" x="92" style="text-anchor: middle; font: 10px &quot;Arial&quot;;"><tspan dy="3.5">Group #1</tspan></text><rect style="" stroke="#204a87" fill="#204a87" ry="3" rx="3" r="0" height="24" width="60" y="101" x="100"></rect><text font-size="12px" fill="#eeeeec" stroke="none" font="10px &quot;Arial&quot;" text-anchor="middle" y="113" x="130" style="text-anchor: middle; font: 12px &quot;Arial&quot;;"><tspan dy="4">"savelfm"</tspan></text><rect style="" stroke="#204a87" fill="#204a87" ry="3" rx="3" r="0" height="24" width="50" y="67" x="105"></rect><text font-size="12px" fill="#eeeeec" stroke="none" font="10px &quot;Arial&quot;" text-anchor="middle" y="79" x="130" style="text-anchor: middle; font: 12px &quot;Arial&quot;;"><tspan dy="4">"setlfm"</tspan></text><rect style="" stroke="#204a87" fill="#204a87" ry="3" rx="3" r="0" height="24" width="44" y="33" x="108"></rect><text font-size="12px" fill="#eeeeec" stroke="none" font="10px &quot;Arial&quot;" text-anchor="middle" y="45" x="130" style="text-anchor: middle; font: 12px &quot;Arial&quot;;"><tspan dy="4">"save"</tspan></text><rect stroke-width="2" stroke-dasharray="6,2" style="" stroke="#a0a0a0" fill="none" ry="3" rx="3" r="0" height="64" width="187" y="47" x="309"></rect><text font-size="10px" fill="#eeeeec" stroke="none" font="10px &quot;Arial&quot;" text-anchor="middle" y="40.5" x="331" style="text-anchor: middle; font: 10px &quot;Arial&quot;;"><tspan dy="3.5">Group #2</tspan></text><rect style="" stroke="#4e9a06" fill="#4e9a06" ry="3" rx="3" r="0" height="24" width="107" y="67" x="349"></rect><text font-size="12px" fill="#eeeeec" stroke="none" font="10px &quot;Arial&quot;" text-anchor="middle" y="79" x="402.5" style="text-anchor: middle; font: 12px &quot;Arial&quot;;"><tspan dy="4">non_white_space</tspan></text><rect style="" stroke="#4e9a06" fill="#4e9a06" ry="3" rx="3" r="0" height="24" width="79" y="67" x="210"></rect><text font-size="12px" fill="#eeeeec" stroke="none" font="10px &quot;Arial&quot;" text-anchor="middle" y="79" x="249.5" style="text-anchor: middle; font: 12px &quot;Arial&quot;;"><tspan dy="4">white_space</tspan></text><path stroke-width="2" d="M10,79H20" stroke="#eeeeec" fill="none" style=""></path><circle stroke-width="2" style="" stroke="#000" fill="#6b6659" r="5" cy="79" cx="10"></circle><path stroke-width="2" d="M506,79H496" stroke="#eeeeec" fill="none" style=""></path><circle stroke-width="2" style="" stroke="#000" fill="#6b6659" r="5" cy="79" cx="506"></circle></svg>